<?xml version="1.0" encoding="UTF-8" standalone="no"?>
<svg xmlns:rdf="http://www.w3.org/1999/02/22-rdf-syntax-ns#" xmlns="http://www.w3.org/2000/svg" height="150" viewBox="0 0 206.25 150" width="206.25" version="1.1" xmlns:cc="http://creativecommons.org/ns#" xmlns:dc="http://purl.org/dc/elements/1.1/">
 <path d="m88.57 144.28-4.2188-2.5651-0.25582-15.949-0.25582-15.949-27.217-15.69-27.217-15.69-4.1002 2.4029c-2.2551 1.3216-4.5352 2.4029-5.0669 2.4029s-2.8824-1.1571-5.2237-2.5713l-4.257-2.5713v-5.2179-5.2179l9.2952-5.3768 9.2952-5.3768 29.845 17.235c16.415 9.4793 30.824 17.755 32.02 18.39l2.1741 1.1548 18.223-10.465 18.223-10.465 4.2118 2.4683 4.2118 2.4683 0.00094-4.9614 0.00093-4.9614 4.8587-2.729 4.8587-2.729 4.9551 2.6804 4.9551 2.6804 0.26334 10.075 0.26334 10.075 8.2321-4.7285 8.2321-4.7285-0.26331-10.81-0.26332-10.81-26.719-15.454-26.719-15.454-4.8161 2.5942-4.8161 2.5942-4.5589-2.7966-4.5589-2.7966-0.27337-5.082-0.27339-5.082 9.4178-5.4675c5.1798-3.0071 9.754-5.3274 10.165-5.1562 0.41082 0.17117 17.073 9.741 37.027 21.266l36.28 20.955v15.412 15.412l-4.6875 2.9139-4.6875 2.9139-0.0144 5.2505-0.0144 5.2505-13.436 7.7344c-7.3896 4.2539-13.889 7.7344-14.443 7.7344-0.55398 0-4.6597-2.1094-9.1238-4.6875s-8.2805-4.6875-8.4807-4.6875c-0.20026 0-0.48339 4.6652-0.62918 10.367l-0.26508 10.367-4.4531 2.4468-4.4531 2.4468-4.4531-2.4468-4.4531-2.4468-0.26572-10.435-0.2657-10.435-0.72021 0.30205c-0.3961 0.16613-4.3898 2.3814-8.8749 4.9229l-8.1547 4.6209-0.0135 16.004-0.0135 16.004-4.6745 2.5781c-2.571 1.418-4.7797 2.545-4.9084 2.5044-0.12866-0.0405-2.1323-1.228-4.4527-2.6388z" fill="#d1d0d0"/>
 <path d="m88.101 143.66-3.75-2.2179-0.46875-16.123-0.46875-16.123-26.719-15.43-26.719-15.43-4.8905 2.5517-4.8905 2.5517-4.4845-2.7504-4.4845-2.7504-0.28337-4.8481-0.28337-4.8481 0.75212 0.0113c0.41367 0.0062 2.5251 1.0251 4.6921 2.2642l3.94 2.2529 0.27879-5.0979 0.27878-5.0979 35.156 20.301c19.336 11.165 35.789 20.459 36.562 20.652l1.4062 0.35122 22.5-13.059 22.5-13.059 0.28549-4.8204 0.28548-4.8204 0.65202 0.31992c0.3586 0.17596 2.2775 1.1461 4.2642 2.1558l3.6122 1.8359 4.5909-2.5632 4.5909-2.5632 0.10175 10.078c0.056 5.5428 0.37237 12.462 0.70312 15.375l0.60138 5.2974 12.414-7.1724c6.8277-3.9448 12.418-7.4618 12.422-7.8156 0.005-0.35373-1.6796-1.5916-3.7421-2.7508l-3.75-2.1076v-10.529-10.529l-27.422-15.845-27.422-15.845-4.5212 2.6559-4.5212 2.6559-4.6185-2.5939-4.6185-2.5939-0.00094-4.9219-0.00096-4.9219 0.70313 0.0035c0.38671 0.002 2.0844 0.84568 3.7726 1.875 1.6882 1.0294 3.4592 1.8715 3.9354 1.8715h0.86584l0.28337-4.6455 0.28337-4.6455 20.625 11.931c11.344 6.5618 27.473 15.869 35.842 20.682l15.217 8.7519 4.169-2.4432c2.2929-1.3438 4.4103-2.4432 4.7052-2.4432h0.53618v15.848 15.848l-4.1723 2.4452-4.1723 2.4452-0.28079 5.3636-0.28079 5.3636-9.8438 5.6934c-5.4141 3.1314-11.58 6.6642-13.702 7.8507l-3.858 2.1572-9.0326-5.215-9.0326-5.215v10.589 10.589l-4.6342 2.5222-4.6342 2.5222-4.7273-2.6076-4.7273-2.6076-0.0135-10.078-0.0135-10.078h-0.58232c-0.32027 0-4.3281 2.1618-8.9062 4.804l-8.3239 4.804v15.781 15.781l-4.0667 2.3833c-4.8665 2.852-5.6245 2.8512-10.465-0.0113zm57.464-59.293 2.1515-1.3958-3.8878-2.2083c-2.1383-1.2146-4.0557-2.2083-4.2609-2.2083-0.20518 0-0.37306 2.1242-0.37306 4.7205v4.7205l2.1094-1.1164c1.1602-0.614 3.0776-1.7445 4.2609-2.5122z" fill="#adacac"/>
 <path d="m88.804 143.65-3.9844-2.388-0.01436-15.181-0.01436-15.181-0.68877-0.98961c-0.88009-1.2645-53.047-31.354-54.359-31.354-0.5402 0-2.8009 1.033-5.0238 2.2957l-4.0416 2.2957-4.4916-2.4446-4.4916-2.4446v-5.0963-5.0963l4.1716 2.4447 4.1716 2.4447 0.28152-5.1385 0.28151-5.1385 35.625 20.575c19.594 11.316 36.112 20.584 36.707 20.595 0.59518 0.0111 10.26-5.293 21.478-11.787 11.217-6.4938 21.383-12.257 22.59-12.807l2.1943-0.9998v-5.0058c0-2.7532 0.21932-5.0058 0.48738-5.0058s2.1913 1.0756 4.2738 2.3903l3.7864 2.3903 4.6324-2.8504 4.6324-2.8504v15.46 15.46h0.72501c0.39874 0 6.5159-3.35 13.594-7.4443l12.869-7.4443v5.4404 5.4404l-11.953 6.8562c-6.5742 3.7709-12.586 7.2387-13.359 7.7061l-1.4062 0.84991-8.9062-5.2131-8.9062-5.2131-0.46875 10.49-0.46875 10.49-4.3367 2.6778-4.3367 2.6778-4.8039-2.9559-4.8039-2.9559v-9.7633-9.7633h-0.59187c-0.32553 0-4.3333 2.1411-8.9062 4.758l-8.3144 4.758v15.828 15.828l-4.0667 2.3833c-2.2367 1.3108-4.4516 2.3793-4.9219 2.3744-0.47032-0.005-2.6481-1.0835-4.8395-2.3969zm55.211-58.147 3.8456-2.4276-3.6298-2.2306c-1.9964-1.2268-3.9463-2.2438-4.333-2.2599l-0.70312-0.02926v4.6875c0 2.5781 0.21932 4.6875 0.48738 4.6875s2.2179-1.0924 4.333-2.4276zm36.22-4.864-4.43-2.547-0.26-10.696-0.26-10.696-27.13-15.699-27.14-15.7l-4.742 2.6119-4.742 2.6119-4.2188-2.5275-4.2188-2.5275-0.28337-4.8654-0.28337-4.8654h0.58518c0.32184 0 2.4314 1.082 4.6879 2.4044l4.1027 2.4044 0.28297-5.1264 0.28297-5.1264 35.535 20.535c19.544 11.294 35.838 20.535 36.21 20.535 0.37155 0 2.6271-1.0908 5.0124-2.4239l4.3368-2.4239v15.938 15.938l-4.3368 2.4239c-2.3853 1.3331-4.3892 2.4118-4.4531 2.397-0.0639-0.01478-2.1077-1.1728-4.5417-2.5734z" fill="#949393"/>
 <path d="m89.039 143.69-3.75-2.3012-0.46875-16.029-0.46875-16.029-27.188-15.744-27.188-15.744-4.6617 2.6341-4.6617 2.6341-4.478-2.515-4.478-2.515-0.000953-4.9614-0.000953-4.9614 4.0667 2.3833c2.2367 1.3108 4.3461 2.3833 4.6875 2.3833h0.62076v-4.6875c0-2.5781 0.16378-4.6875 0.36395-4.6875s16.126 9.1249 35.391 20.278 35.449 20.282 35.964 20.288c0.51562 0.006 10.547-5.5511 22.291-12.348s21.975-12.596 22.734-12.888l1.3808-0.52988v4.8659 4.8659l0.70312-0.33696c4.8439-2.3213 7.7344-4.0442 7.7344-4.6102 0-0.38149-1.793-1.6804-3.9844-2.8864l-3.9844-2.1928-0.28754-5.0289-0.28754-5.0289 4.2719 2.5035 4.2719 2.5035 4.0667-2.3833c2.2367-1.3108 4.3359-2.3833 4.6648-2.3833h0.59809l0.25705 15.337 0.25704 15.337 12.656-7.3556c6.9609-4.0456 12.973-7.3613 13.359-7.3682l0.70313-0.01267-0.006 4.9219-0.006 4.9219-13.348 7.6895-13.348 7.6894-3.7557-2.1796c-2.0656-1.1988-6.1815-3.5391-9.1464-5.2008l-5.3906-3.0213v10.4 10.4l-4.4235 2.7532-4.4234 2.7532-4.4818-2.5171-4.4818-2.5171-0.00094-10.547-0.00071-10.547h-0.56167c-0.30892 0-4.5277 2.3341-9.375 5.1869l-8.8133 5.1869v15.827 15.827l-4.3368 2.4239c-2.3853 1.3332-4.6001 2.4107-4.9219 2.3946-0.32178-0.0161-2.2725-1.0648-4.335-2.3305zm91.142-63.328-4.4235-2.7532-0.0337-10.545-0.0337-10.545-27.319-15.664-27.319-15.664-4.5546 2.5393-4.5546 2.5393-4.4206-2.4416-4.4206-2.4416-0.28718-4.9336-0.28716-4.9336 4.3896 2.4534c2.4143 1.3494 4.5474 2.4534 4.7403 2.4534 0.19287 0 0.35067-2.2823 0.35067-5.0717v-5.0717l35.581 20.54c19.57 11.297 35.97 20.54 36.444 20.54 0.47492 0 2.8151-1.0908 5.2003-2.4239l4.3368-2.4239-0.00094 15.783-0.00094 15.783-4.4818 2.5171-4.4818 2.5171-4.4234-2.7532z" fill="#797677"/>
 <path d="m93.29 125.19 0.03302-20.859 22.078-12.656c12.143-6.9609 22.464-12.797 22.936-12.969l0.85775-0.3125v4.7656 4.7656h0.62076c0.34141 0 2.4508-1.0725 4.6875-2.3833l4.0667-2.3833v-5.4118-5.4118l3.5156-1.7898c1.9336-0.98439 3.832-1.9414 4.2188-2.1268l0.70313-0.33696v15.494 15.494l-3.9844 2.3817-3.9844 2.3817-0.28337-4.6723-0.28337-4.6723h-0.77043c-0.42373 0-2.722 1.0908-5.1072 2.4239l-4.3368 2.4239v10.621 10.621l-4.2188 2.3579-4.2188 2.3579v-15.403-15.403l-0.70313 0.02381c-0.38671 0.01312-6.3984 3.3009-13.359 7.3063l-12.656 7.2824-0.25559 15.916-0.25559 15.917-4.2357 2.5585c-2.3297 1.4072-4.4295 2.5585-4.6663 2.5585-0.23679 0-0.41568-9.3867-0.39753-20.859zm63.717-20.685v-5.1367l13.128-7.5969c7.2204-4.1783 13.338-7.5969 13.594-7.5969 0.25616 0 0.46564 2.2148 0.46551 4.9219l-0.00025 4.9219-8.6716 4.9241c-4.7694 2.7082-10.886 6.2235-13.594 7.8118l-4.9219 2.8877v-5.1367zm-136.88-26.459v-5.3046l3.9844 2.353 3.9844 2.353-0.358 0.78905c-0.1969 0.43398-1.9899 1.7622-3.9844 2.9516l-3.6264 2.1625v-5.3046zm164.06-10.727v-14.988l3.5156-2.1871c1.9336-1.2029 4.043-2.4987 4.6875-2.8796l1.1719-0.69246-0.007 15.758-0.007 15.758-3.6941 2.1094c-2.0318 1.1602-4.1379 2.1094-4.6803 2.1094h-0.98557v-14.988zm-72.188-42.133v-4.6215l4.289 2.3972 4.289 2.3972-3.916 2.2243c-2.1538 1.2234-4.0838 2.2243-4.289 2.2243-0.20518 0-0.37306-2.0797-0.37306-4.6215z" fill="#524e4f"/>
 <path d="m93.473 125.4 0.253-20.87 21.564-12.502c11.859-6.8748 21.879-12.508 22.266-12.519l0.70313-0.01938v4.6875 4.6875l0.70312-0.07369c0.38672-0.04053 2.6016-1.2257 4.9219-2.6338l4.2188-2.5601 0.46875-5.5569 0.46875-5.5569 3.9844-2.1921 3.9844-2.1921v15.311 15.311l-4.2188 2.5482-4.2188 2.5482v-5.1332-5.1332l-0.70313 0.07369c-0.38671 0.04053-2.6016 1.2276-4.9219 2.6379l-4.2188 2.5643-0.26379 10.721-0.26381 10.721-3.6719 2.1094c-2.0196 1.1602-3.8946 2.1094-4.1667 2.1094h-0.49472l-0.25705-15.405-0.25704-15.405-13.594 7.8708-13.594 7.8708-0.46875 16.06-0.46875 16.06-4.0026 2.3619-4.0026 2.3619 0.2526-20.868zm64.654-21.645 0.28641-4.9767 12.656-7.3151 12.656-7.3151 0.29352 3.874c0.16144 2.1307 0.10154 4.3743-0.1331 4.9857l-0.42661 1.1117-12.054 6.8905c-6.6299 3.7898-12.394 7.0774-12.81 7.306l-0.75514 0.41553 0.28639-4.9767zm-138-25.677c0-2.3203 0.22774-4.2188 0.5061-4.2188 0.27835 0 2.2542 0.89182 4.3908 1.9818l3.8847 1.9818-3.6876 2.2321c-2.0282 1.2277-4.004 2.2343-4.3908 2.2369l-0.70312 0.0048v-4.2188zm165-10.952v-15.311l4.2414-2.5619 4.2414-2.5619-0.257 15.677-0.257 15.677-3.9844 2.1968-3.9844 2.1968v-15.311zm-73.125-41.524v-4.2428h0.59247c0.32586 0 2.0507 0.90124 3.833 2.0028l3.2405 2.0028-1.2549 0.84405c-0.69018 0.46423-2.415 1.4723-3.833 2.2401l-2.5781 1.396v-4.2428z" fill="#332f30"/>
 <path d="m93.257 125.52v-20.49l21.714-12.534c11.943-6.8937 22.068-12.675 22.5-12.846l0.78598-0.3125v4.7656 4.7656h0.56496c0.31072 0 2.6134-1.1515 5.1171-2.5589l4.5521-2.5589 0.27352-5.4354 0.27353-5.4354 3.9844-2.3713 3.9844-2.3713-0.007 15.288-0.007 15.288-3.6941 2.1094c-2.0318 1.1602-3.927 2.1094-4.2115 2.1094-0.28399 0-0.51682-2.1094-0.51682-4.6875v-4.6875h-0.56496c-0.31072 0-2.6185 1.1544-5.1284 2.5652l-4.5635 2.5652-0.26221 10.778-0.26221 10.778-3.9844 2.196-3.9844 2.196v-15.539c0-8.5464-0.1438-15.539-0.31956-15.539s-6.3984 3.5063-13.828 7.7919l-13.509 7.7919-0.25559 15.9-0.25559 15.9-4.1975 2.5354-4.1975 2.5354v-20.49zm64.687-21.45v-4.7019l11.016-6.3592c6.0586-3.4976 11.965-6.9631 13.125-7.7013l2.1094-1.342v4.7019 4.7019l-11.016 6.3592c-6.0586 3.4976-11.965 6.9631-13.125 7.7013l-2.1094 1.342v-4.7019zm-136.87-26.079v-4.2471l3.7395 2.1017c2.0567 1.1559 3.6388 2.1614 3.5156 2.2344-0.12314 0.07295-1.8059 1.0384-3.7395 2.1454l-3.5156 2.0128v-4.2471zm164.06-10.932v-15.348l3.5156-1.7898c1.9336-0.98439 3.8427-1.945 4.2424-2.1346l0.72676-0.34484-0.25801 15.108-0.25801 15.108-3.9844 2.3748-3.9844 2.3748v-15.348zm-73.125-41.508v-4.1871h0.59247c0.77506 0 7.092 3.9056 6.7225 4.1563-0.15603 0.10584-1.8657 1.0982-3.7993 2.2052l-3.5156 2.0128v-4.1871z" fill="#221e1f"/>
</svg>
